{
  "accessors": [
    {
      "name": "Z_Function_Z_Function_Material.001_1_0_positions",
      "componentType": 5126,
      "count": 900,
      "min": [
        -1,
        -2,
        -1
      ],
      "max": [
        1,
        -0.008888999931514263,
        1
      ],
      "type": "VEC3",
      "bufferView": 0,
      "byteOffset": 0
    },
    {
      "name": "Z_Function_Z_Function_Material.001_1_0_normals",
      "componentType": 5126,
      "count": 900,
      "min": [
        -0.881493330001831,
        0.35418352484703064,
        -0.881493330001831
      ],
      "max": [
        0.881493330001831,
        1,
        0.881493330001831
      ],
      "type": "VEC3",
      "bufferView": 1,
      "byteOffset": 0
    },
    {
      "name": "Z_Function_Z_Function_Material.001_1_0_indices",
      "componentType": 5123,
      "count": 1350,
      "min": [
        0
      ],
      "max": [
        899
      ],
      "type": "SCALAR",
      "bufferView": 2,
      "byteOffset": 0
    }
  ],
  "asset": {
    "generator": "obj2gltf",
    "version": "2.0"
  },
  "buffers": [
    {
      "name": "checker",
      "byteLength": 24300,
      "uri": "data:application/octet-stream;base64,"
    }
  ],
  "bufferViews": [
    {
      "name": "bufferView_0",
      "buffer": 0,
      "byteLength": 10800,
      "byteOffset": 0,
      "byteStride": 12,
      "target": 34962
    },
    {
      "name": "bufferView_1",
      "buffer": 0,
      "byteLength": 10800,
      "byteOffset": 10800,
      "byteStride": 12,
      "target": 34962
    },
    {
      "name": "bufferView_2",
      "buffer": 0,
      "byteLength": 2700,
      "byteOffset": 21600,
      "target": 34963
    }
  ],
  "materials": [
    {
      "name": "Material.001",
      "pbrMetallicRoughness": {
        "baseColorFactor": [
          0.4,
          0.4,
          1,
          1
        ],
        "metallicFactor": 0.2,
        "roughnessFactor": 0.903921569
      },
      "emissiveFactor": [
        0,
        0,
        0
      ],
      "alphaMode": "OPAQUE",
      "doubleSided": true
    }
  ],
  "meshes": [
    {
      "name": "Z_Function_Z_Function_Material.001_1",
      "primitives": [
        {
          "attributes": {
            "POSITION": 0,
            "NORMAL": 1
          },
          "indices": 2,
          "material": 0,
          "mode": 4
        }
      ]
    }
  ],
  "nodes": [
    {
      "name": "Z_Function_Z_Function_Material.001",
      "mesh": 0
    }
  ],
  "scene": 0,
  "scenes": [
    {
      "nodes": [
        0
      ]
    }
  ]
}
