{
    "accessors" : [
        {
            "bufferView" : 0,
            "componentType" : 5123,
            "count" : 1350,
            "max" : [
                899
            ],
            "min" : [
                0
            ],
            "type" : "SCALAR"
        },
        {
            "bufferView" : 1,
            "componentType" : 5126,
            "count" : 900,
            "max" : [
                1.0,
                0.9911110997200012,
                1.0
            ],
            "min" : [
                -1.0,
                -1.0,
                -1.0
            ],
            "type" : "VEC3"
        },
        {
            "bufferView" : 2,
            "componentType" : 5126,
            "count" : 900,
            "max" : [
                0.8814799189567566,
                -0.35424289107322693,
                0.8814799189567566
            ],
            "min" : [
                -0.8814799189567566,
                -1.0,
                -0.8814799189567566
            ],
            "type" : "VEC3"
        },
        {
            "bufferView" : 3,
            "componentType" : 5126,
            "count" : 900,
            "max" : [
                0.6507914662361145,
                0.6246951222419739,
                1.0,
                1.0
            ],
            "min" : [
                -1.0,
                -0.9146333932876587,
                -0.7071067690849304,
                -1.0
            ],
            "type" : "VEC4"
        },
        {
            "bufferView" : 4,
            "componentType" : 5126,
            "count" : 900,
            "max" : [
                0.8800672292709351,
                0.9998091190936975
            ],
            "min" : [
                0.0001908809063024819,
                0.00019097328186035156
            ],
            "type" : "VEC2"
        }
    ],
    "asset" : {
        "generator" : "Khronos Blender glTF 2.0 exporter",
        "version" : "2.0"
    },
    "bufferViews" : [
        {
            "buffer" : 0,
            "byteLength" : 2700,
            "byteOffset" : 0,
            "target" : 34963
        },
        {
            "buffer" : 0,
            "byteLength" : 10800,
            "byteOffset" : 2700,
            "target" : 34962
        },
        {
            "buffer" : 0,
            "byteLength" : 10800,
            "byteOffset" : 13500,
            "target" : 34962
        },
        {
            "buffer" : 0,
            "byteLength" : 14400,
            "byteOffset" : 24300,
            "target" : 34962
        },
        {
            "buffer" : 0,
            "byteLength" : 7200,
            "byteOffset" : 38700,
            "target" : 34962
        }
    ],
    "buffers" : [
        {
            "byteLength" : 45900,
            "uri" : "math6.bin"
        }
    ],
    "meshes" : [
        {
            "name" : "Z Function.002",
            "primitives" : [
                {
                    "attributes" : {
                        "NORMAL" : 2,
                        "POSITION" : 1,
                        "TANGENT" : 3,
                        "TEXCOORD_0" : 4
                    },
                    "indices" : 0
                }
            ]
        }
    ],
    "nodes" : [
        {
            "mesh" : 0,
            "name" : "Z Function.002",
            "translation" : [
                0.0,
                -0.015636000782251358,
                -0.0
            ]
        }
    ],
    "scene" : 0,
    "scenes" : [
        {
            "name" : "Scene",
            "nodes" : [
                0
            ]
        }
    ]
}
